<svg id="Layer_1" data-name="Layer 1" xmlns="http://www.w3.org/2000/svg" viewBox="0 0 78.12 90"><title>black-cat</title><path d="M93.4,69.52a4.57,4.57,0,0,0-9,1.82c1.54,7.6-.51,12.93-5.92,15.41a14.65,14.65,0,0,1-3.7,1.11c.08-1.25.13-2.54.1-3.92-.19-12.23-14.83-18.24-19.23-27.1a11.7,11.7,0,0,0,4.52-10A19.46,19.46,0,0,0,55.9,35.5c1.25-6.21,2.27-15.55-1.11-17.6C51.2,15.7,45,23.12,42,27.61a26.56,26.56,0,0,0-4.89-.29,25.64,25.64,0,0,0-4.84.73C29,23.84,22.25,16.81,18.88,19.32c-3.18,2.35-1.47,11.82.35,17.9A19.34,19.34,0,0,0,16,48.91c.4,8.74,8.66,12.88,19.26,13.2-4.12,7.34-14.37,12.18-14.3,23.74C21,101.67,33.53,109,51.8,107.24c11.34-1.1,17.59-4.35,20.65-10a24.56,24.56,0,0,0,9.88-2.15C91.64,90.79,95.78,81.24,93.4,69.52ZM26.34,45.72c-3.49.11-6.4-1.81-6.46-4.32s2.66-4.69,6.15-4.8h.29a3.7,3.7,0,0,0-.88,3c.08,1.69.76,3,1.53,3s1.31-1.44,1.24-3.14a4,4,0,0,0-1-2.83c3,.29,5.26,2.05,5.31,4.28C32.6,43.44,29.82,45.62,26.34,45.72Zm11.72,5.37c-.65,0-1.18-.22-1.18-.5s.53-.5,1.18-.5,1.19.23,1.19.5S38.72,51.09,38.06,51.09Zm2.48-4.42-1.66,1.82a1,1,0,0,1-.75.34,1,1,0,0,1-.78-.27L35.53,46.9a1.1,1.1,0,0,1-.31-1.17,1,1,0,0,1,.94-.71l3.53-.16a1.07,1.07,0,0,1,1,.62A1,1,0,0,1,40.54,46.67Zm9.05-2C46.11,44.88,43.2,43,43,40.45c-.1-2.23,2-4.23,4.92-4.76a3.92,3.92,0,0,0-.79,2.93c.08,1.7.76,3,1.52,3s1.32-1.44,1.24-3.14a3.67,3.67,0,0,0-1.14-2.9,2.85,2.85,0,0,1,.29,0c3.48-.21,6.44,1.65,6.56,4.21S53.07,44.51,49.59,44.67Z" transform="translate(-15.94 -17.5)"/></svg>